<?xml version="1.0" encoding="UTF-8"?>
<svg version="1.1" xmlns="http://www.w3.org/2000/svg" width="867" height="867">
<path d="M0 0 C0.73444336 0.12115173 1.46888672 0.24230347 2.22558594 0.36712646 C83.64194524 13.9155077 161.1951944 48.69508139 222.41796875 104.6640625 C223.82256853 105.93478969 225.23342468 107.19924671 226.67407227 108.42895508 C232.39698025 113.32707161 237.73409889 118.58137783 243.0456543 123.9152832 C244.5599258 125.43491668 246.0794743 126.94912517 247.59960938 128.46289062 C252.94271059 133.80162857 258.13408865 139.21759808 263 145 C263.53455811 145.627854 264.06911621 146.25570801 264.61987305 146.90258789 C317.2924646 209.09764109 350.75607913 283.71299574 364 364 C364.11599548 364.69577148 364.23199097 365.39154297 364.35150146 366.10839844 C371.24779632 408.037472 370.98541335 453.09964945 364 495 C363.87884827 495.73444336 363.75769653 496.46888672 363.63287354 497.22558594 C350.0844923 578.64194524 315.30491861 656.1951944 259.3359375 717.41796875 C258.06521031 718.82256853 256.80075329 720.23342468 255.57104492 721.67407227 C250.67292839 727.39698025 245.41862217 732.73409889 240.0847168 738.0456543 C238.56508332 739.5599258 237.05087483 741.0794743 235.53710938 742.59960938 C230.19837143 747.94271059 224.78240192 753.13408865 219 758 C218.372146 758.53455811 217.74429199 759.06911621 217.09741211 759.61987305 C154.90235891 812.2924646 80.28700426 845.75607913 0 859 C-0.69577148 859.11599548 -1.39154297 859.23199097 -2.10839844 859.35150146 C-44.037472 866.24779632 -89.09964945 865.98541335 -131 859 C-131.73444336 858.87884827 -132.46888672 858.75769653 -133.22558594 858.63287354 C-214.64194524 845.0844923 -292.1951944 810.30491861 -353.41796875 754.3359375 C-354.82256853 753.06521031 -356.23342468 751.80075329 -357.67407227 750.57104492 C-363.39698025 745.67292839 -368.73409889 740.41862217 -374.0456543 735.0847168 C-375.5599258 733.56508332 -377.0794743 732.05087483 -378.59960938 730.53710938 C-383.94271059 725.19837143 -389.13408865 719.78240192 -394 714 C-394.53455811 713.372146 -395.06911621 712.74429199 -395.61987305 712.09741211 C-448.2924646 649.90235891 -481.75607913 575.28700426 -495 495 C-495.11599548 494.30422852 -495.23199097 493.60845703 -495.35150146 492.89160156 C-502.24779632 450.962528 -501.98541335 405.90035055 -495 364 C-494.87884827 363.26555664 -494.75769653 362.53111328 -494.63287354 361.77441406 C-481.0844923 280.35805476 -446.30491861 202.8048056 -390.3359375 141.58203125 C-389.06521031 140.17743147 -387.80075329 138.76657532 -386.57104492 137.32592773 C-381.67292839 131.60301975 -376.41862217 126.26590111 -371.0847168 120.9543457 C-369.56508332 119.4400742 -368.05087483 117.9205257 -366.53710938 116.40039062 C-361.19837143 111.05728941 -355.78240192 105.86591135 -350 101 C-349.372146 100.46544189 -348.74429199 99.93088379 -348.09741211 99.38012695 C-285.90235891 46.7075354 -211.28700426 13.24392087 -131 0 C-130.30422852 -0.11599548 -129.60845703 -0.23199097 -128.89160156 -0.35150146 C-86.962528 -7.24779632 -41.90035055 -6.98541335 0 0 Z " fill="#34A4F6" transform="translate(499,4)"/>
<path d="M0 0 C0.93585937 0.39832031 1.87171875 0.79664063 2.8359375 1.20703125 C13.88017091 6.28737862 21.1881267 13.36691362 27 24 C27.37898437 24.66644531 27.75796875 25.33289063 28.1484375 26.01953125 C29.90284193 30.0997287 29.75099263 34.61747037 30 39 C30.08894531 39.9590625 30.17789063 40.918125 30.26953125 41.90625 C30.65388277 48.84245416 29.44179193 54.68068553 27.390625 61.23046875 C26.98876228 62.53928513 26.98876228 62.53928513 26.57878113 63.87454224 C23.70933645 73.11784617 20.54309737 82.25293787 17.3125 91.375 C16.69751299 93.12177001 16.08268828 94.86859717 15.46801758 96.61547852 C11.01325961 109.24956452 6.44705586 121.84038526 1.79296875 134.40234375 C-0.58823053 140.84382797 -2.91047789 147.30578092 -5.23046875 153.76953125 C-9.9085695 166.7922664 -14.68823673 179.77614171 -19.5 192.75 C-19.92864349 193.90654083 -20.35728699 195.06308167 -20.79891968 196.25466919 C-37.19496962 240.48166656 -53.72376093 284.68145404 -71.35917664 328.43186951 C-73.81999592 334.54139652 -76.26008874 340.65913084 -78.69921875 346.77734375 C-89.86163439 374.7672376 -101.06763224 402.73767865 -112.83081055 430.48193359 C-115.01034295 435.62678165 -117.15530308 440.78527125 -119.2890625 445.94921875 C-127.05142859 464.71750595 -135.05832838 483.35557609 -143.30680847 501.91496277 C-146.41761591 508.92331363 -149.4617596 515.95996362 -152.5 523 C-159.3127667 538.76783329 -166.23453338 554.48685491 -173.19732666 570.18896484 C-173.93504044 571.85343471 -174.67144114 573.51848638 -175.40771484 575.18359375 C-180.31721485 586.27704747 -185.43454619 597.21971894 -191 608 C-191.52722656 609.03640625 -192.05445313 610.0728125 -192.59765625 611.140625 C-196.28963039 618.21615284 -200.38095587 625.01741708 -204.5625 631.8125 C-205.10479248 632.69639404 -205.64708496 633.58028809 -206.20581055 634.4909668 C-215.99520904 650.23977478 -215.99520904 650.23977478 -223.625 654.625 C-224.27267334 654.99834473 -224.92034668 655.37168945 -225.58764648 655.75634766 C-243.08384872 665.33195793 -262.44994729 666.61967279 -282 668 C-282.94456055 668.07057617 -283.88912109 668.14115234 -284.86230469 668.21386719 C-296.66474382 669.06234988 -308.48502301 669.09479696 -320.3125 669.125 C-321.03313629 669.12776947 -321.75377258 669.13053894 -322.49624634 669.13339233 C-329.74917512 669.15380794 -336.81047025 668.9979158 -344 668 C-346.70550751 667.86177205 -349.40946102 667.78488061 -352.11743164 667.71020508 C-380.19584847 666.91473731 -416.88677903 663.97517297 -438.5625 643.875 C-446.56663695 635.31612089 -451.60756192 624.38615508 -456.6875 613.9375 C-457.04394592 613.20789063 -457.40039185 612.47828125 -457.76763916 611.7265625 C-467.15505224 592.39823199 -474.88641613 572.38222876 -482.70960999 552.3840332 C-485.56773213 545.07901836 -488.50266171 537.81159583 -491.5 530.5625 C-500.28667314 509.1580649 -508.60317513 487.55941519 -517 466 C-517.50243225 464.71023254 -517.50243225 464.71023254 -518.01501465 463.39440918 C-535.66756646 418.05239157 -552.79026856 372.48243527 -569.50869751 326.78807068 C-571.68470958 320.84609539 -573.8833539 314.91263917 -576.0859375 308.98046875 C-583.31809591 289.49358871 -590.47443502 269.98564367 -597.42376709 250.39596558 C-601.84891434 237.92659208 -606.39440317 225.50772871 -611.01901245 213.11105347 C-618.40428811 193.30431134 -625.48388886 173.39891655 -632.4375 153.4375 C-632.66667744 152.77972691 -632.89585487 152.12195381 -633.13197708 151.4442482 C-637.35499472 139.32069384 -641.56840154 127.19385758 -645.72290039 115.04663086 C-646.39250207 113.09234029 -647.0622922 111.13811439 -647.73211861 109.18390083 C-648.35077085 107.37551199 -648.96597582 105.56594495 -649.58103943 103.7563324 C-652.5575233 95.06816745 -655.90086801 86.58187231 -659.50390625 78.13671875 C-663.61043728 67.75196858 -662.97207281 54.61254301 -660 44 C-649.54018206 22.94027728 -624.77966263 16.31786425 -604.17089844 9.36206055 C-588.24987031 4.12189767 -572.17917976 -0.41076015 -555.91064453 -4.43530273 C-552.86653911 -5.18959651 -549.82580643 -5.95651958 -546.78515625 -6.72460938 C-468.77480058 -26.26735111 -468.77480058 -26.26735111 -446.46484375 -14.5390625 C-445.65144531 -14.03117188 -444.83804688 -13.52328125 -444 -13 C-442.67162109 -12.23816406 -442.67162109 -12.23816406 -441.31640625 -11.4609375 C-431.39399253 -5.23915654 -426.37803453 4.36762864 -421.875 14.875 C-421.41399902 15.93887939 -420.95299805 17.00275879 -420.47802734 18.09887695 C-413.95318191 33.46548705 -408.49550931 49.24368406 -403 65 C-402.44469405 66.58692547 -401.88935553 68.17383954 -401.33398438 69.76074219 C-394.06822087 90.5564927 -387.25161478 111.46754025 -380.72225952 132.5050354 C-379.17778847 137.46631988 -377.55622375 142.3961942 -375.875 147.3125 C-373.1553579 155.30181211 -370.77133526 163.38511128 -368.36981201 171.47479248 C-364.78653176 183.52791882 -361.00810428 195.51370497 -357.18444824 207.49246216 C-353.71900358 218.35504345 -350.29852578 229.2298979 -346.94921875 240.12890625 C-346.60217896 241.25811493 -346.25513916 242.38732361 -345.89758301 243.55075073 C-345.18635305 245.86568122 -344.47519236 248.18063298 -343.76409912 250.49560547 C-337.21085274 271.82681438 -330.47703324 293.08668607 -323.44018555 314.26367188 C-318.97185846 327.75360122 -314.8928239 341.33307087 -311 355 C-308.52699599 352.52699599 -307.90486045 350.41260336 -306.71484375 347.12109375 C-306.26560547 345.88681641 -305.81636719 344.65253906 -305.35351562 343.38085938 C-304.88138159 342.06645252 -304.40937583 340.75199958 -303.9375 339.4375 C-303.49728516 338.22513672 -303.05707031 337.01277344 -302.60351562 335.76367188 C-301.35887766 332.33489504 -300.12341245 328.90286628 -298.88925171 325.4703064 C-297.90413263 322.73368419 -296.91567415 319.99827995 -295.92700195 317.26293945 C-291.02710935 303.6956107 -286.20683053 290.10198623 -281.42904663 276.49124146 C-274.81432917 257.6595366 -268.07103371 238.88338405 -261.13194275 220.16900635 C-260.85508133 219.42229675 -260.57821991 218.67558716 -260.29296875 217.90625 C-260.01896744 217.16743591 -259.74496613 216.42862183 -259.46266174 215.66741943 C-254.49605785 202.2580577 -249.67731343 188.79433366 -244.8404541 175.33776855 C-243.97709215 172.93628057 -243.11312847 170.53500976 -242.24902344 168.13378906 C-240.45646128 163.15213128 -238.66525776 158.16998637 -236.875 153.1875 C-236.43346085 151.95874649 -236.43346085 151.95874649 -235.98300171 150.70516968 C-232.98772112 142.36661618 -230.00126585 134.02525122 -227.05859375 125.66796875 C-222.19725449 111.8674057 -217.2087095 98.1290863 -211.97265625 84.46557617 C-209.51530035 78.04163248 -207.12671597 71.60304454 -204.84350586 65.11523438 C-200.78106162 53.57916256 -196.39685572 42.18440598 -191.88217163 30.8187561 C-191.17778275 29.04489225 -190.47559677 27.27015181 -189.77578735 25.49447632 C-183.10220171 8.58807271 -176.68255319 -7.44582198 -159.97265625 -16.8203125 C-153.60031743 -19.3491513 -146.76488105 -20.12550755 -140 -21 C-139.01193359 -21.14139404 -139.01193359 -21.14139404 -138.00390625 -21.28564453 C-96.45389246 -27.01208874 -38.35216663 -16.70470265 0 0 Z " fill="#34A4F6" transform="translate(748,167)"/>
<path d="M0 0 C0.93585937 0.39832031 1.87171875 0.79664063 2.8359375 1.20703125 C13.88017091 6.28737862 21.1881267 13.36691362 27 24 C27.37898437 24.66644531 27.75796875 25.33289063 28.1484375 26.01953125 C29.90284193 30.0997287 29.75099263 34.61747037 30 39 C30.08894531 39.9590625 30.17789063 40.918125 30.26953125 41.90625 C30.65388277 48.84245416 29.44179193 54.68068553 27.390625 61.23046875 C26.98876228 62.53928513 26.98876228 62.53928513 26.57878113 63.87454224 C23.70933645 73.11784617 20.54309737 82.25293787 17.3125 91.375 C16.69751299 93.12177001 16.08268828 94.86859717 15.46801758 96.61547852 C11.01325961 109.24956452 6.44705586 121.84038526 1.79296875 134.40234375 C-0.58823053 140.84382797 -2.91047789 147.30578092 -5.23046875 153.76953125 C-9.9085695 166.7922664 -14.68823673 179.77614171 -19.5 192.75 C-19.92864349 193.90654083 -20.35728699 195.06308167 -20.79891968 196.25466919 C-37.19496962 240.48166656 -53.72376093 284.68145404 -71.35917664 328.43186951 C-73.81999592 334.54139652 -76.26008874 340.65913084 -78.69921875 346.77734375 C-89.86163439 374.7672376 -101.06763224 402.73767865 -112.83081055 430.48193359 C-115.01034295 435.62678165 -117.15530308 440.78527125 -119.2890625 445.94921875 C-127.05142859 464.71750595 -135.05832838 483.35557609 -143.30680847 501.91496277 C-146.41761591 508.92331363 -149.4617596 515.95996362 -152.5 523 C-159.3127667 538.76783329 -166.23453338 554.48685491 -173.19732666 570.18896484 C-173.93504044 571.85343471 -174.67144114 573.51848638 -175.40771484 575.18359375 C-180.31721485 586.27704747 -185.43454619 597.21971894 -191 608 C-191.52722656 609.03640625 -192.05445313 610.0728125 -192.59765625 611.140625 C-196.28963039 618.21615284 -200.38095587 625.01741708 -204.5625 631.8125 C-205.10479248 632.69639404 -205.64708496 633.58028809 -206.20581055 634.4909668 C-215.99520904 650.23977478 -215.99520904 650.23977478 -223.625 654.625 C-224.27267334 654.99834473 -224.92034668 655.37168945 -225.58764648 655.75634766 C-243.08384872 665.33195793 -262.44994729 666.61967279 -282 668 C-282.94456055 668.07057617 -283.88912109 668.14115234 -284.86230469 668.21386719 C-296.66474382 669.06234988 -308.48502301 669.09479696 -320.3125 669.125 C-321.03313629 669.12776947 -321.75377258 669.13053894 -322.49624634 669.13339233 C-329.74917512 669.15380794 -336.81047025 668.9979158 -344 668 C-346.70550751 667.86177205 -349.40946102 667.78488061 -352.11743164 667.71020508 C-380.19584847 666.91473731 -416.88677903 663.97517297 -438.5625 643.875 C-446.56663695 635.31612089 -451.60756192 624.38615508 -456.6875 613.9375 C-457.04394592 613.20789063 -457.40039185 612.47828125 -457.76763916 611.7265625 C-467.15505224 592.39823199 -474.88641613 572.38222876 -482.70960999 552.3840332 C-485.56773213 545.07901836 -488.50266171 537.81159583 -491.5 530.5625 C-500.28667314 509.1580649 -508.60317513 487.55941519 -517 466 C-517.50243225 464.71023254 -517.50243225 464.71023254 -518.01501465 463.39440918 C-535.66756646 418.05239157 -552.79026856 372.48243527 -569.50869751 326.78807068 C-571.68470958 320.84609539 -573.8833539 314.91263917 -576.0859375 308.98046875 C-583.31809591 289.49358871 -590.47443502 269.98564367 -597.42376709 250.39596558 C-601.84891434 237.92659208 -606.39440317 225.50772871 -611.01901245 213.11105347 C-618.40428811 193.30431134 -625.48388886 173.39891655 -632.4375 153.4375 C-632.66667744 152.77972691 -632.89585487 152.12195381 -633.13197708 151.4442482 C-637.35499472 139.32069384 -641.56840154 127.19385758 -645.72290039 115.04663086 C-646.39250207 113.09234029 -647.0622922 111.13811439 -647.73211861 109.18390083 C-648.35077085 107.37551199 -648.96597582 105.56594495 -649.58103943 103.7563324 C-652.5575233 95.06816745 -655.90086801 86.58187231 -659.50390625 78.13671875 C-663.61043728 67.75196858 -662.97207281 54.61254301 -660 44 C-649.54018206 22.94027728 -624.77966263 16.31786425 -604.17089844 9.36206055 C-588.24987031 4.12189767 -572.17917976 -0.41076015 -555.91064453 -4.43530273 C-552.86653911 -5.18959651 -549.82580643 -5.95651958 -546.78515625 -6.72460938 C-468.77480058 -26.26735111 -468.77480058 -26.26735111 -446.46484375 -14.5390625 C-445.65144531 -14.03117188 -444.83804688 -13.52328125 -444 -13 C-442.67162109 -12.23816406 -442.67162109 -12.23816406 -441.31640625 -11.4609375 C-431.39399253 -5.23915654 -426.37803453 4.36762864 -421.875 14.875 C-421.41399902 15.93887939 -420.95299805 17.00275879 -420.47802734 18.09887695 C-413.95318191 33.46548705 -408.49550931 49.24368406 -403 65 C-402.44469405 66.58692547 -401.88935553 68.17383954 -401.33398438 69.76074219 C-394.06822087 90.5564927 -387.25161478 111.46754025 -380.72225952 132.5050354 C-379.17778847 137.46631988 -377.55622375 142.3961942 -375.875 147.3125 C-373.1553579 155.30181211 -370.77133526 163.38511128 -368.36981201 171.47479248 C-364.78653176 183.52791882 -361.00810428 195.51370497 -357.18444824 207.49246216 C-353.71900358 218.35504345 -350.29852578 229.2298979 -346.94921875 240.12890625 C-346.60217896 241.25811493 -346.25513916 242.38732361 -345.89758301 243.55075073 C-345.18635305 245.86568122 -344.47519236 248.18063298 -343.76409912 250.49560547 C-337.21085274 271.82681438 -330.47703324 293.08668607 -323.44018555 314.26367188 C-318.97185846 327.75360122 -314.8928239 341.33307087 -311 355 C-308.52699599 352.52699599 -307.90486045 350.41260336 -306.71484375 347.12109375 C-306.26560547 345.88681641 -305.81636719 344.65253906 -305.35351562 343.38085938 C-304.88138159 342.06645252 -304.40937583 340.75199958 -303.9375 339.4375 C-303.49728516 338.22513672 -303.05707031 337.01277344 -302.60351562 335.76367188 C-301.35887766 332.33489504 -300.12341245 328.90286628 -298.88925171 325.4703064 C-297.90413263 322.73368419 -296.91567415 319.99827995 -295.92700195 317.26293945 C-291.02710935 303.6956107 -286.20683053 290.10198623 -281.42904663 276.49124146 C-274.81432917 257.6595366 -268.07103371 238.88338405 -261.13194275 220.16900635 C-260.85508133 219.42229675 -260.57821991 218.67558716 -260.29296875 217.90625 C-260.01896744 217.16743591 -259.74496613 216.42862183 -259.46266174 215.66741943 C-254.49605785 202.2580577 -249.67731343 188.79433366 -244.8404541 175.33776855 C-243.97709215 172.93628057 -243.11312847 170.53500976 -242.24902344 168.13378906 C-240.45646128 163.15213128 -238.66525776 158.16998637 -236.875 153.1875 C-236.43346085 151.95874649 -236.43346085 151.95874649 -235.98300171 150.70516968 C-232.98772112 142.36661618 -230.00126585 134.02525122 -227.05859375 125.66796875 C-222.19725449 111.8674057 -217.2087095 98.1290863 -211.97265625 84.46557617 C-209.51530035 78.04163248 -207.12671597 71.60304454 -204.84350586 65.11523438 C-200.78106162 53.57916256 -196.39685572 42.18440598 -191.88217163 30.8187561 C-191.17778275 29.04489225 -190.47559677 27.27015181 -189.77578735 25.49447632 C-183.10220171 8.58807271 -176.68255319 -7.44582198 -159.97265625 -16.8203125 C-153.60031743 -19.3491513 -146.76488105 -20.12550755 -140 -21 C-139.01193359 -21.14139404 -139.01193359 -21.14139404 -138.00390625 -21.28564453 C-96.45389246 -27.01208874 -38.35216663 -16.70470265 0 0 Z M-145.13671875 25.15234375 C-147.3763763 28.57521662 -149.01601416 32.10510983 -150.5625 35.875 C-150.90128174 36.69033203 -151.24006348 37.50566406 -151.58911133 38.34570312 C-155.22941194 47.28387576 -158.39795284 56.39245033 -161.58911133 65.49780273 C-165.04336458 75.34905069 -168.60409794 85.1555724 -172.25 94.9375 C-172.51699707 95.65396698 -172.78399414 96.37043396 -173.05908203 97.10861206 C-174.73801115 101.61093781 -176.42145725 106.1115646 -178.10626221 110.61169434 C-179.03126507 113.08354859 -179.95500417 115.55587201 -180.87841797 118.02832031 C-186.97738864 134.35717283 -193.07750614 150.68396824 -199.375 166.9375 C-202.78989795 175.76115567 -206.0671661 184.62439443 -209.2487793 193.53466797 C-212.68429051 203.15231199 -216.18129627 212.74691693 -219.69058228 222.33786011 C-220.34452195 224.12511904 -220.99815788 225.91248915 -221.65145874 227.69998169 C-224.90855418 236.61126439 -228.18261244 245.5150638 -231.5241394 254.39506531 C-235.36878422 264.62480845 -239.14706765 274.87930662 -242.93041992 285.13183594 C-243.8453449 287.60977797 -244.7613452 290.08732325 -245.6784668 292.56445312 C-251.27461713 307.68059542 -256.72440353 322.83468929 -261.96118164 338.07910156 C-277.06305447 382.03763775 -277.06305447 382.03763775 -285 399 C-285.47614746 400.02407959 -285.47614746 400.02407959 -285.96191406 401.06884766 C-290.21792165 410.05210895 -295.14020119 419.6622148 -304.47265625 424.203125 C-310.48275726 426.09811821 -316.12540413 425.82580599 -321.75 422.9375 C-333.92537768 415.27152146 -336.9440126 401.61384546 -341.1875 388.6875 C-341.70429746 387.12433364 -342.22139727 385.56126722 -342.73876953 383.99829102 C-344.50054817 378.66815908 -346.25082769 373.33427987 -348 368 C-348.32434021 367.01153076 -348.64868042 366.02306152 -348.98284912 365.00463867 C-355.44488598 345.30910262 -361.88272491 325.6056212 -368.28515625 305.890625 C-369.33575758 302.65619152 -370.38653077 299.42181396 -371.4375 296.1875 C-371.70141541 295.37521942 -371.96533081 294.56293884 -372.23724365 293.7260437 C-379.33949894 271.87825169 -386.54329681 250.06370775 -393.73147583 228.24407959 C-400.1444471 208.77715088 -406.5489727 189.30790268 -412.875 169.8125 C-417.39155657 155.89647277 -421.95947102 141.99880589 -426.61157227 128.12744141 C-427.10175376 126.66569966 -427.59190686 125.20394839 -428.08203125 123.7421875 C-428.32381607 123.0212088 -428.56560089 122.3002301 -428.81471252 121.55740356 C-430.53249611 116.42453548 -432.215098 111.28087233 -433.88671875 106.1328125 C-440.95903775 84.42371723 -448.87036917 63.10717835 -457.26205444 41.87411499 C-457.93013738 40.17742581 -458.58925394 38.4772128 -459.24731445 36.77661133 C-459.5949585 35.88482178 -459.94260254 34.99303223 -460.30078125 34.07421875 C-460.58348877 33.34291748 -460.86619629 32.61161621 -461.1574707 31.8581543 C-462.59614505 28.68523326 -464.14132261 26.96931109 -467 25 C-470.18985065 24.32019576 -472.77503683 24.07700053 -476 24 C-477.0415625 23.92652344 -478.083125 23.85304688 -479.15625 23.77734375 C-515.49967745 22.26303427 -584.72399983 35.11092709 -612.87890625 59.63671875 C-616.14391666 66.51940621 -611.5939992 76.40385526 -609.4375 83.1875 C-609.04965332 84.42016602 -608.66180664 85.65283203 -608.26220703 86.92285156 C-596.012909 125.49567742 -582.00997046 163.60086373 -567.5 201.375 C-562.5594687 214.24435461 -558.03135674 227.24616015 -553.51846313 240.27017212 C-549.25784777 252.5655161 -544.9236146 264.82215621 -540.40527344 277.02563477 C-537.51133628 284.85280092 -534.66381432 292.69526027 -531.84765625 300.55078125 C-531.47721191 301.58403534 -531.10676758 302.61728943 -530.72509766 303.68185425 C-529.95719972 305.82394902 -529.18931665 307.96604912 -528.42144775 310.1081543 C-521.90822625 328.27173831 -515.28674267 346.38710904 -508.47143555 364.43945312 C-504.40985746 375.20322653 -500.4296182 385.99400627 -496.49710083 396.80557251 C-490.42388146 413.50221593 -484.1809782 430.12696068 -477.82910156 446.71948242 C-474.02060903 456.67197443 -470.25785634 466.63879532 -466.56939697 476.63638306 C-444.53299568 536.52023426 -444.53299568 536.52023426 -420.0625 595.4375 C-419.73282227 596.19506592 -419.40314453 596.95263184 -419.06347656 597.7331543 C-415.22676189 606.22610433 -410.45462202 615.17346618 -401.609375 619.046875 C-364.46048292 631.9595915 -320.2471457 629.2549216 -281.5 627.25 C-280.82364502 627.21942505 -280.14729004 627.1888501 -279.45043945 627.15734863 C-260.09743604 626.35845475 -260.09743604 626.35845475 -244 617 C-242.05028055 614.40655392 -240.38505117 611.69024476 -238.7421875 608.89453125 C-238.27070282 608.10641556 -237.79921814 607.31829987 -237.31344604 606.50630188 C-232.16417372 597.7794017 -227.60068783 588.77316388 -223.125 579.6875 C-222.69324463 578.81683899 -222.26148926 577.94617798 -221.81665039 577.0491333 C-214.4860802 562.26254317 -207.52872239 547.34935613 -200.95965576 532.2076416 C-199.48341639 528.81162442 -197.99760153 525.4198055 -196.51321411 522.02734375 C-186.18591043 498.4180739 -175.96427787 474.76488864 -166 451 C-165.63946533 450.14013489 -165.27893066 449.28026978 -164.9074707 448.39434814 C-149.4597139 411.53498209 -134.05092523 374.65033653 -119.49414062 337.42822266 C-115.68258461 327.68705762 -111.77130914 317.99136889 -107.77563477 308.32397461 C-105.18266651 302.02093368 -102.72766903 295.67498568 -100.34994507 289.28823853 C-98.50800504 284.34261898 -96.6314133 279.41151347 -94.73046875 274.48828125 C-94.44886398 273.75869705 -94.16725922 273.02911285 -93.87712097 272.27742004 C-93.28834263 270.75250525 -92.69943693 269.22763962 -92.1104126 267.70281982 C-85.49020532 250.55665372 -78.95628513 233.37870863 -72.47924805 216.17797852 C-71.75962815 214.26708032 -71.03998291 212.35619167 -70.3203125 210.4453125 C-69.78489586 209.02347908 -69.78489586 209.02347908 -69.23866272 207.57292175 C-66.75966926 200.99667919 -64.25595484 194.43020454 -61.7421875 187.8671875 C-52.37329141 163.36739155 -43.56556804 138.7119528 -35.06307983 113.89871216 C-32.73943188 107.12543747 -30.38035282 100.36544462 -27.99609375 93.61328125 C-27.67663284 92.70732712 -27.35717194 91.80137299 -27.0280304 90.8679657 C-24.60362576 83.99462948 -24.60362576 83.99462948 -23.3866272 80.57162476 C-20.47755547 72.38688885 -17.65530938 64.18088522 -15.109375 55.875 C-14.7875827 54.86312622 -14.7875827 54.86312622 -14.45928955 53.83081055 C-13.02500212 49.01864087 -12.63836644 44.96557086 -13 40 C-17.93314734 34.74336759 -25.90747637 34.05386562 -32.6875 32.5625 C-34.04107626 32.25824488 -35.39459093 31.95371567 -36.74804688 31.64892578 C-40.8263546 30.73877503 -44.91138737 29.86255963 -49 29 C-50.13260254 28.76104004 -51.26520508 28.52208008 -52.43212891 28.27587891 C-66.76075728 25.32042235 -81.19704726 23.16324603 -95.6875 21.1875 C-96.48293213 21.07613708 -97.27836426 20.96477417 -98.09790039 20.85003662 C-123.09344363 16.59988258 -123.09344363 16.59988258 -145.13671875 25.15234375 Z " fill="#000102" transform="translate(748,167)"/>
<path d="M0 0 C6.91251816 3.58919212 10.29910257 9.12412411 13.59765625 15.95703125 C13.93612076 16.64553665 14.27458527 17.33404205 14.62330627 18.04341125 C17.46821223 23.85001426 20.25757776 29.68385636 23.05859375 35.51171875 C24.39916895 38.29613729 25.73998206 41.08044056 27.08129883 43.86450195 C27.9871953 45.75016909 28.88952843 47.63755215 29.78833008 49.52661133 C34.63638019 59.70531889 39.48331459 69.43599619 46.20727539 78.51489258 C49.97558343 83.73858964 50.70673008 87.63942926 50 94 C48.7431803 97.57201389 47.63466107 99.43787163 44.8125 101.9375 C40.98193864 103.38460096 37.85594928 103.07874772 34 102 C9.54075992 90.550994 -4.1510869 43.7594682 -13 21 C-13.31936523 20.19900879 -13.63873047 19.39801758 -13.96777344 18.57275391 C-15.8178625 13.84776091 -16.64475019 10.93425057 -15 6 C-10.77421494 0.48334111 -6.77657217 -1.07564638 0 0 Z " fill="#010204" transform="translate(332,641)"/>
<path d="M0 0 C4.76933618 1.22269909 6.58039917 4.47200948 9.11328125 8.40234375 C12.33064983 17.03843837 8.99142957 24.94847783 6.17578125 33.27734375 C5.85048431 34.2487027 5.85048431 34.2487027 5.51861572 35.23968506 C2.04215527 45.5400639 -2.09375227 55.43021334 -6.82421875 65.21484375 C-7.66557373 66.96220825 -7.66557373 66.96220825 -8.52392578 68.74487305 C-14.1329648 80.02234474 -20.88984927 92.37118283 -30.69921875 100.58984375 C-34.80006876 101.47836125 -36.58771775 100.99402593 -40.44921875 99.58984375 C-44.65787274 95.84881798 -45.8427393 90.81184755 -46.17578125 85.36328125 C-46.06464328 77.35177952 -42.32259814 70.04174853 -39.26171875 62.77734375 C-38.61377695 61.20658812 -37.96713826 59.63529434 -37.32177734 58.06347656 C-35.7476353 54.24198104 -34.15293055 50.4295076 -32.55047607 46.61981201 C-31.36965787 43.80394963 -30.20895472 40.97988774 -29.046875 38.15625 C-12.74361311 -1.10225485 -12.74361311 -1.10225485 0 0 Z " fill="#010204" transform="translate(648.69921875,335.41015625)"/>
<path d="M0 0 C13.66631406 10.08492015 18.18137409 31.82651973 24 47 C24.80416704 49.07832645 25.60882174 51.15646432 26.4140625 53.234375 C27.13088137 55.09349064 27.84706918 56.95284977 28.5625 58.8125 C28.88468506 59.646604 29.20687012 60.48070801 29.53881836 61.34008789 C35.75522035 77.64195894 35.75522035 77.64195894 32.8125 86.625 C30.14054016 91.6003735 28.17562445 95.19421317 22.625 97.25 C18.33037137 96.95381872 16.82285346 95.88541102 13.67578125 93.12890625 C8.42575253 86.45928935 5.75254836 77.69345728 2.6875 69.875 C2.32674881 68.95625595 2.32674881 68.95625595 1.95870972 68.01895142 C-2.5502305 56.50000798 -6.49386523 44.86258588 -10 33 C-10.33451172 31.91211182 -10.33451172 31.91211182 -10.67578125 30.80224609 C-13.1772887 22.66275522 -15.35597014 14.56973129 -14 6 C-10.62135755 -0.03329008 -6.65481596 -1.99644479 0 0 Z " fill="#010203" transform="translate(200,266)"/>
<path d="M0 0 C2.64677492 2.64677492 3.2057802 5.13272316 4.3828125 8.6875 C4.60194305 9.34580811 4.82107361 10.00411621 5.04684448 10.68237305 C5.50852082 12.07344067 5.96728233 13.46547859 6.42333984 14.85839844 C7.12299518 16.99388092 7.8322025 19.12600564 8.54296875 21.2578125 C12 31.70490367 12 31.70490367 12 34 C11.34 34 10.68 34 10 34 C9.67 32.02 9.34 30.04 9 28 C8.01 28 7.02 28 6 28 C6.05027344 27.15695312 6.10054688 26.31390625 6.15234375 25.4453125 C5.97740775 21.48906751 4.97054789 18.56863272 3.5625 14.875 C0 5.43589744 0 5.43589744 0 0 Z " fill="#34ACE8" transform="translate(310,265)"/>
<path d="M0 0 C0.66 0 1.32 0 2 0 C2 0.66 2 1.32 2 2 C1.43410156 2.27714844 0.86820313 2.55429687 0.28515625 2.83984375 C-0.44832031 3.20207031 -1.18179688 3.56429687 -1.9375 3.9375 C-2.66839844 4.29714844 -3.39929688 4.65679688 -4.15234375 5.02734375 C-5.96249027 5.86371827 -5.96249027 5.86371827 -7 7 C-9.33297433 7.04092937 -11.66705225 7.04241723 -14 7 C-14 7.66 -14 8.32 -14 9 C-19.52967941 9.71033431 -24.49983036 10.30267176 -30 9 C-30 8.67 -30 8.34 -30 8 C-29.2471875 7.91363281 -28.494375 7.82726562 -27.71875 7.73828125 C-12.91578886 6.15000319 -12.91578886 6.15000319 0 0 Z " fill="#32A3E6" transform="translate(517,824)"/>
<path d="M0 0 C0.33 0.66 0.66 1.32 1 2 C0.29753247 3.70599258 -0.41417039 5.40907763 -1.18359375 7.0859375 C-2.13545572 9.1899213 -2.13545572 9.1899213 -2.875 12.3125 C-4.34986142 17.146768 -6.40473322 21.65791904 -9 26 C-9.66 26.33 -10.32 26.66 -11 27 C-10.44440458 21.01742794 -7.99130941 16.06733997 -5.5 10.6875 C-5.08363281 9.76904297 -4.66726563 8.85058594 -4.23828125 7.90429688 C-1.15583546 1.15583546 -1.15583546 1.15583546 0 0 Z " fill="#37B0F1" transform="translate(586,711)"/>
<path d="M0 0 C2.62304778 3.93457167 4.00774819 8.0755672 5.625 12.5 C5.94984375 13.36753906 6.2746875 14.23507812 6.609375 15.12890625 C7.06957031 16.37994141 7.06957031 16.37994141 7.5390625 17.65625 C7.81959473 18.41744141 8.10012695 19.17863281 8.38916016 19.96289062 C9 22 9 22 9 25 C8.34 25 7.68 25 7 25 C5.10470162 21.75091705 4.3814996 18.55108051 3.66015625 14.90234375 C3.1325321 12.8947615 3.1325321 12.8947615 1.4453125 11.578125 C-0.60155117 9.34317116 -0.30324242 7.78322213 -0.1875 4.8125 C-0.16042969 3.91144531 -0.13335937 3.01039063 -0.10546875 2.08203125 C-0.07066406 1.39496094 -0.03585938 0.70789063 0 0 Z " fill="#2FA2E6" transform="translate(140,388)"/>
<path d="M0 0 C3.76530194 2.5102013 4.41651276 5.13907187 5.75 9.25 C5.98332031 9.90613281 6.21664063 10.56226563 6.45703125 11.23828125 C7.88428626 15.53713916 8.11681377 18.61446298 7 23 C5.0572947 20.08594205 4.62386413 18.76826053 4.0625 15.4375 C3.09055503 10.15789493 1.63077646 5.10976623 0 0 Z " fill="#35A8E7" transform="translate(366,438)"/>
<path d="M0 0 C1.125 3.75 1.125 3.75 0 6 C-0.99 6 -1.98 6 -3 6 C-3.45375 7.216875 -3.9075 8.43375 -4.375 9.6875 C-5.54452941 12.8080927 -6.74562438 15.91230616 -8 19 C-9.3041744 15.98978351 -8.92797856 14.77810295 -7.890625 11.58203125 C-7.35577053 10.32035721 -6.80845737 9.06390563 -6.25 7.8125 C-5.98445312 7.17119141 -5.71890625 6.52988281 -5.4453125 5.86914062 C-4.72075005 4.20370218 -3.86709875 2.5958746 -3 1 C-2.01 0.67 -1.02 0.34 0 0 Z " fill="#38AFF2" transform="translate(628,619)"/>
<path d="M0 0 C1.820788 2.731182 2.79709174 4.85418267 3.8125 7.9375 C4.25529297 9.21947266 4.25529297 9.21947266 4.70703125 10.52734375 C5 13 5 13 3.57421875 15.31640625 C3.05472656 15.87199219 2.53523437 16.42757812 2 17 C-1.2972561 2.5945122 -1.2972561 2.5945122 0 0 Z " fill="#30A1E8" transform="translate(201,554)"/>
<path d="M0 0 C1.32 0.33 2.64 0.66 4 1 C4 4 4 4 1.5 6.6875 C0.675 7.450625 -0.15 8.21375 -1 9 C-1.33 8.01 -1.66 7.02 -2 6 C-2.66 5.67 -3.32 5.34 -4 5 C-2.68 3.35 -1.36 1.7 0 0 Z " fill="#30A1EA" transform="translate(501,778)"/>
<path d="M0 0 C2 3 2 3 1.4375 6.875 C0.2934891 10.98131728 -1.72597257 13.24292427 -5 16 C-3.41078475 10.63904723 -1.81027062 5.29156027 0 0 Z " fill="#32ABED" transform="translate(587,231)"/>
<path d="M0 0 C1.29252526 3.62078268 0.67164791 5.9392835 -0.4375 9.5625 C-1.35236488 12.58606689 -2 14.82974498 -2 18 C-2.99 18 -3.98 18 -5 18 C-4.42934122 11.58008874 -2.32655091 5.98410537 0 0 Z " fill="#37AEF0" transform="translate(569,280)"/>
<path d="M0 0 C2 1 2 1 3.2890625 4.30859375 C3.74210268 5.68237148 4.18708349 7.05882681 4.625 8.4375 C4.85445313 9.13166016 5.08390625 9.82582031 5.3203125 10.54101562 C7 15.70505487 7 15.70505487 7 18 C6.34 18 5.68 18 5 18 C2.67344909 12.01589463 0.57065878 6.41991126 0 0 Z " fill="#32A8E6" transform="translate(351,390)"/>
<path d="M0 0 C2.92586433 1.46293216 3.05946588 3.40270098 4.125 6.4375 C4.47820312 7.42621094 4.83140625 8.41492188 5.1953125 9.43359375 C6 12 6 12 6 14 C5.34 14 4.68 14 4 14 C1.8553857 11.8553857 1.55435397 10.98260002 0.875 8.125 C0.70742187 7.44695312 0.53984375 6.76890625 0.3671875 6.0703125 C0 4 0 4 0 0 Z " fill="#30A3E7" transform="translate(169,470)"/>
<path d="M0 0 C1.91385532 2.87078299 2.96432952 5.33411656 4.125 8.5625 C4.47820312 9.53316406 4.83140625 10.50382812 5.1953125 11.50390625 C6 14 6 14 6 16 C4.68 16 3.36 16 2 16 C1.33333333 10.66666667 0.66666667 5.33333333 0 0 Z " fill="#32A8E7" transform="translate(193,309)"/>
<path d="M0 0 C0 0.99 0 1.98 0 3 C-5.52967941 3.71033431 -10.49983036 4.30267176 -16 3 C-16 2.67 -16 2.34 -16 2 C-13.89627599 1.66388432 -11.79200343 1.33120054 -9.6875 1 C-8.51574219 0.814375 -7.34398437 0.62875 -6.13671875 0.4375 C-3 0 -3 0 0 0 Z " fill="#2D95DA" transform="translate(503,830)"/>
<path d="M0 0 C2.40034102 3.60051153 4.32187705 6.96144535 3.625 11.375 C3.41875 11.91125 3.2125 12.4475 3 13 C2.67 11.35 2.34 9.7 2 8 C0.68 7.67 -0.64 7.34 -2 7 C-1.34 4.69 -0.68 2.38 0 0 Z " fill="#37ABEF" transform="translate(347,376)"/>
<path d="M0 0 C0.33 0.66 0.66 1.32 1 2 C1.66 2.33 2.32 2.66 3 3 C1.35 3.33 -0.3 3.66 -2 4 C-2 4.99 -2 5.98 -2 7 C-3.32 6.67 -4.64 6.34 -6 6 C-4.75453595 2.26360784 -3.36595047 1.81243487 0 0 Z " fill="#309EE8" transform="translate(529,817)"/>
<path d="M0 0 C1.125 1.6875 1.125 1.6875 2 4 C1.24101587 7.18773336 0.69126741 8.57304072 -2.125 10.3125 C-3.053125 10.6528125 -3.053125 10.6528125 -4 11 C-2.7874262 7.27566618 -1.49140021 3.62197194 0 0 Z " fill="#33A7E9" transform="translate(594,691)"/>
<path d="M0 0 C0.33 0.66 0.66 1.32 1 2 C1.66 2.33 2.32 2.66 3 3 C2.34 3 1.68 3 1 3 C1 4.65 1 6.3 1 8 C0.34 8 -0.32 8 -1 8 C-1.12375 8.804375 -1.2475 9.60875 -1.375 10.4375 C-1.58125 11.283125 -1.7875 12.12875 -2 13 C-2.99 13.495 -2.99 13.495 -4 14 C-3.52188823 12.22888156 -3.0424722 10.45811517 -2.5625 8.6875 C-2.29566406 7.70136719 -2.02882813 6.71523438 -1.75390625 5.69921875 C-1.21920575 3.78482474 -0.62855462 1.88566385 0 0 Z " fill="#040913" transform="translate(458,468)"/>
<path d="M0 0 C0.33 0 0.66 0 1 0 C1.16533484 4.29870596 1.21065389 7.26952156 -1 11 C-1 11.66 -1 12.32 -1 13 C-1.99 13 -2.98 13 -4 13 C-3.52140759 11.39566191 -3.04210442 9.79153584 -2.5625 8.1875 C-2.29566406 7.29417969 -2.02882813 6.40085937 -1.75390625 5.48046875 C-1.19612127 3.64526945 -0.60655425 1.81966274 0 0 Z " fill="#32A8E6" transform="translate(755,284)"/>
<path d="M0 0 C1.18142578 0.13148438 1.18142578 0.13148438 2.38671875 0.265625 C3.33998047 0.50539063 3.33998047 0.50539063 4.3125 0.75 C4.6425 1.41 4.9725 2.07 5.3125 2.75 C-1.6175 2.255 -1.6175 2.255 -8.6875 1.75 C-4.78533981 -0.2010801 -4.01034441 -0.5037788 0 0 Z " fill="#2F9EDD" transform="translate(382.6875,790.25)"/>
<path d="M0 0 C0.8125 1.625 0.8125 1.625 1 4 C-0.46818136 6.24609835 -2.15852858 8.02378677 -4 10 C-4.6875 8.3125 -4.6875 8.3125 -5 6 C-2.73846154 1.36923077 -2.73846154 1.36923077 0 0 Z " fill="#050A12" transform="translate(627,421)"/>
<path d="M0 0 C0.66 0 1.32 0 2 0 C3.38938077 1.96147874 4.7260411 3.96166576 6 6 C5.01 6 4.02 6 3 6 C2.67 5.01 2.34 4.02 2 3 C1.34 3 0.68 3 0 3 C0.33 4.32 0.66 5.64 1 7 C-0.5 5.625 -0.5 5.625 -2 4 C-2 3.34 -2 2.68 -2 2 C-1.34 2 -0.68 2 0 2 C0 1.34 0 0.68 0 0 Z " fill="#2FA6EC" transform="translate(355,734)"/>
<path d="M0 0 C0.66 0.66 1.32 1.32 2 2 C0.68 4.64 -0.64 7.28 -2 10 C-2.33 10 -2.66 10 -3 10 C-3.36923077 3.47692308 -3.36923077 3.47692308 -1.5 1.0625 C-1.005 0.711875 -0.51 0.36125 0 0 Z " fill="#04070C" transform="translate(637,586)"/>
<path d="M0 0 C2.95183101 2.95183101 3.08663988 5.95511947 4 10 C3.01 10 2.02 10 1 10 C-0.60725635 6.78548731 -0.05748185 3.56387464 0 0 Z " fill="#2C9DDE" transform="translate(164,455)"/>
<path d="M0 0 C0.33 0.66 0.66 1.32 1 2 C1.66 2 2.32 2 3 2 C2.49396008 4.16874252 2.00016187 5.99967627 1 8 C0.01 8 -0.98 8 -2 8 C-1.47731534 5.23723823 -0.89130413 2.6739124 0 0 Z " fill="#2F9FED" transform="translate(85,209)"/>
<path d="M0 0 C1.98 0.99 1.98 0.99 4 2 C3.67 4.97 3.34 7.94 3 11 C2.67 11 2.34 11 2 11 C1.67 9.02 1.34 7.04 1 5 C0.67 5 0.34 5 0 5 C0 3.35 0 1.7 0 0 Z " fill="#3BB0F9" transform="translate(731,207)"/>
<path d="M0 0 C1.54571278 2.31856917 2.79618552 4.50638429 4 7 C2.35 7.33 0.7 7.66 -1 8 C-1.93065133 5.39417629 -2.14917407 4.35801776 -1.0625 1.75 C-0.711875 1.1725 -0.36125 0.595 0 0 Z " fill="#31A2E9" transform="translate(563,761)"/>
<path d="M0 0 C1 3 1 3 -0.4375 6.1875 C-1.2109375 7.5796875 -1.2109375 7.5796875 -2 9 C-3.74627478 6.38058783 -4.38722388 4.96175123 -5 2 C-4.01 2.33 -3.02 2.66 -2 3 C-1.34 2.01 -0.68 1.02 0 0 Z " fill="#36AAEB" transform="translate(534,723)"/>
<path d="M0 0 C0.99 0.66 1.98 1.32 3 2 C2.34 3.32 1.68 4.64 1 6 C0.34 5.67 -0.32 5.34 -1 5 C-1 5.66 -1 6.32 -1 7 C-1.66 7 -2.32 7 -3 7 C-1.125 1.125 -1.125 1.125 0 0 Z " fill="#04060C" transform="translate(556,678)"/>
<path d="M0 0 C1.74627478 2.61941217 2.38722388 4.03824877 3 7 C1.02 7.99 1.02 7.99 -1 9 C-2.60031344 5.79937313 -1.03173691 3.27728194 0 0 Z " fill="#30A0E6" transform="translate(237,648)"/>
<path d="M0 0 C3 2 3 2 3.51171875 4.3828125 C3.56972656 5.28773438 3.62773437 6.19265625 3.6875 7.125 C3.75324219 8.03507813 3.81898438 8.94515625 3.88671875 9.8828125 C3.92410156 10.58148437 3.96148437 11.28015625 4 12 C2 11 2 11 0.875 8.8125 C-0.08328236 5.73230669 -0.14915816 3.20690052 0 0 Z " fill="#38AEF3" transform="translate(234,511)"/>
<path d="M0 0 C0.33 0 0.66 0 1 0 C2.37142857 9.14285714 2.37142857 9.14285714 1 12 C0.01 12.33 -0.98 12.66 -2 13 C-1.34 8.71 -0.68 4.42 0 0 Z " fill="#319FEB" transform="translate(546,340)"/>
<path d="M0 0 C1.9375 0.75 1.9375 0.75 4 2 C4.875 4 4.875 4 5 6 C4.34 6.66 3.68 7.32 3 8 C0 3.375 0 3.375 0 0 Z " fill="#2FA2EC" transform="translate(122,346)"/>
<path d="M0 0 C0.66 1.32 1.32 2.64 2 4 C0.625 7.75 0.625 7.75 -1 11 C-1.66 10.67 -2.32 10.34 -3 10 C-2.01 6.7 -1.02 3.4 0 0 Z " fill="#33A6E5" transform="translate(563,296)"/>
<path d="M0 0 C0.66 0 1.32 0 2 0 C2.36923077 6.52307692 2.36923077 6.52307692 0.5 8.9375 C0.005 9.288125 -0.49 9.63875 -1 10 C-2.31223496 6.06329512 -1.24296256 3.87511856 0 0 Z " fill="#2FA2EC" transform="translate(309,263)"/>
<path d="M0 0 C10.15317287 -0.63019694 10.15317287 -0.63019694 13.6875 2 C14.120625 2.66 14.55375 3.32 15 4 C14.01 4 13.02 4 12 4 C11.34 3.34 10.68 2.68 10 2 C7.56747339 1.53837573 7.56747339 1.53837573 4.875 1.375 C3.96492188 1.30023438 3.05484375 1.22546875 2.1171875 1.1484375 C1.41851562 1.09945312 0.71984375 1.05046875 0 1 C0 0.67 0 0.34 0 0 Z " fill="#37B3F9" transform="translate(270,192)"/>
<path d="M0 0 C0.66 0 1.32 0 2 0 C2.99 3.3 3.98 6.6 5 10 C4.34 10 3.68 10 3 10 C0.96564469 6.27034861 0 4.33094958 0 0 Z " fill="#32A7E8" transform="translate(249,681)"/>
<path d="M0 0 C0.95465783 2.16967689 1.14401212 3.56328793 0.3984375 5.82421875 C-0.35870385 7.5684743 -1.17609198 9.28627131 -2 11 C-3.0625 9.125 -3.0625 9.125 -4 7 C-3.67 6.34 -3.34 5.68 -3 5 C-2.34 5 -1.68 5 -1 5 C-0.67 3.35 -0.34 1.7 0 0 Z " fill="#36B1F3" transform="translate(703,303)"/>
<path d="M0 0 C-2 2 -2 2 -4.1640625 2.1953125 C-5.38222656 2.16050781 -5.38222656 2.16050781 -6.625 2.125 C-7.44226563 2.10695312 -8.25953125 2.08890625 -9.1015625 2.0703125 C-9.72804687 2.04710937 -10.35453125 2.02390625 -11 2 C-6.80312837 -0.79791442 -4.79748656 -1.16695619 0 0 Z " fill="#2FA0E3" transform="translate(181,210)"/>
<path d="M0 0 C0.68707555 2.49064888 1 4.37886292 1 7 C0.01 7 -0.98 7 -2 7 C-2.33 7.99 -2.66 8.98 -3 10 C-4 7 -4 7 -3.22265625 5.17578125 C-2.1484375 3.45052083 -1.07421875 1.72526042 0 0 Z " fill="#32A5E7" transform="translate(548,789)"/>
<path d="M0 0 C1.89213369 2.38573379 3.02391783 4.07175348 4 7 C3.34 7.66 2.68 8.32 2 9 C2 8.34 2 7.68 2 7 C1.34 7 0.68 7 0 7 C-0.93423645 3.98968256 -1.04449911 3.13349732 0 0 Z " fill="#2FA2E8" transform="translate(412,574)"/>
<path d="M0 0 C0.66 0.99 1.32 1.98 2 3 C2.66 3 3.32 3 4 3 C4.33 2.34 4.66 1.68 5 1 C4.42655063 3.86724686 4.1385485 4.8614515 2 7 C0.4375 5.75 0.4375 5.75 -1 4 C-0.6875 1.8125 -0.6875 1.8125 0 0 Z " fill="#319FEA" transform="translate(675,497)"/>
<path d="M0 0 C-0.66 2.31 -1.32 4.62 -2 7 C-2.66 7 -3.32 7 -4 7 C-4.6875 5.1875 -4.6875 5.1875 -5 3 C-3.38441968 0.84589291 -2.74502455 0 0 0 Z " fill="#020911" transform="translate(695,447)"/>
<path d="M0 0 C0.66 0 1.32 0 2 0 C5.07692308 6.4 5.07692308 6.4 4.6875 9.4375 C4.460625 9.953125 4.23375 10.46875 4 11 C3.67 9.35 3.34 7.7 3 6 C2.34 6 1.68 6 1 6 C0.67 4.02 0.34 2.04 0 0 Z " fill="#37B4F4" transform="translate(299,237)"/>
<path d="M0 0 C0.33 0 0.66 0 1 0 C1.75 2.75 1.75 2.75 2 6 C0.0625 8.375 0.0625 8.375 -2 10 C-3 8 -3 8 -2.44140625 6.0546875 C-2.15136719 5.33539062 -1.86132812 4.61609375 -1.5625 3.875 C-1.27503906 3.15054688 -0.98757813 2.42609375 -0.69140625 1.6796875 C-0.46324219 1.12539063 -0.23507812 0.57109375 0 0 Z " fill="#050A14" transform="translate(590,596)"/>
<path d="M0 0 C2 2 2 2 2.125 5.625 C2.08375 6.73875 2.0425 7.8525 2 9 C1.01 9.495 1.01 9.495 0 10 C-1.125 3.375 -1.125 3.375 0 0 Z " fill="#309EE9" transform="translate(507,447)"/>
<path d="M0 0 C0.33 0.99 0.66 1.98 1 3 C1.66 3 2.32 3 3 3 C3 4.65 3 6.3 3 8 C2.34 8 1.68 8 1 8 C0.34 5.69 -0.32 3.38 -1 1 C-0.67 0.67 -0.34 0.34 0 0 Z " fill="#38B0F8" transform="translate(185,374)"/>
<path d="M0 0 C0.33 1.32 0.66 2.64 1 4 C-0.32 4.99 -1.64 5.98 -3 7 C-3 3 -3 3 -1.5 1.25 C-1.005 0.8375 -0.51 0.425 0 0 Z " fill="#050B16" transform="translate(229,354)"/>
<path d="M0 0 C1.9451 2.91765 2.45276317 4.62537285 3 8 C1.68 8 0.36 8 -1 8 C-1.125 2.25 -1.125 2.25 0 0 Z " fill="#33A0E1" transform="translate(99,272)"/>
<path d="M0 0 C7.75 0.75 7.75 0.75 10 3 C7.625 3.625 7.625 3.625 5 4 C4.34 3.34 3.68 2.68 3 2 C2.01 1.34 1.02 0.68 0 0 Z " fill="#36B3F3" transform="translate(721,202)"/>
<path d="M0 0 C0 3.38023517 -0.87455622 5.83468937 -2 9 C-2.99 8.34 -3.98 7.68 -5 7 C-1.125 1.125 -1.125 1.125 0 0 Z " fill="#32A5E6" transform="translate(605,190)"/>
<path d="M0 0 C0.66 0 1.32 0 2 0 C2.66 2.31 3.32 4.62 4 7 C3.34 7.66 2.68 8.32 2 9 C0.50178941 5.62902617 0 3.79557881 0 0 Z " fill="#2FA0E4" transform="translate(261,711)"/>
<path d="M0 0 C1.99097846 2.98646769 2.94124926 5.59687262 4 9 C3.34 9.66 2.68 10.32 2 11 C0.80712589 7.12315913 0 4.08378077 0 0 Z " fill="#32A2DF" transform="translate(325,677)"/>
<path d="M0 0 C1.0326802 2.78823655 1.04509293 3.8677274 0.0625 6.75 C-0.288125 7.4925 -0.63875 8.235 -1 9 C-1.66 8.67 -2.32 8.34 -3 8 C-3 6.68 -3 5.36 -3 4 C-2.34 3.67 -1.68 3.34 -1 3 C-0.67 2.01 -0.34 1.02 0 0 Z " fill="#35ADEF" transform="translate(664,407)"/>
<path d="M0 0 C2 3.75 2 3.75 2 6 C0.68 6 -0.64 6 -2 6 C-2.33 6.66 -2.66 7.32 -3 8 C-3.33 6.68 -3.66 5.36 -4 4 C-2.68 4 -1.36 4 0 4 C0 2.68 0 1.36 0 0 Z " fill="#2E9EE5" transform="translate(189,295)"/>
<path d="M0 0 C-1.92576115 2.43929746 -3.80090595 4.80090595 -6 7 C-5.814375 6.21625 -5.62875 5.4325 -5.4375 4.625 C-4.74037734 2.02910225 -4.74037734 2.02910225 -6 0 C-3 -1 -3 -1 0 0 Z " fill="#2C99E0" transform="translate(574,163)"/>
<path d="M0 0 C1.32 0.33 2.64 0.66 4 1 C1.03 3.475 1.03 3.475 -2 6 C-2 3 -2 3 0 0 Z " fill="#329DE5" transform="translate(576,156)"/>
</svg>
