<?xml version="1.0" encoding="UTF-8"?>
<svg version="1.1" xmlns="http://www.w3.org/2000/svg" width="225" height="225">
<path d="M0 0 C74.25 0 148.5 0 225 0 C225 74.25 225 148.5 225 225 C150.75 225 76.5 225 0 225 C0 150.75 0 76.5 0 0 Z " fill="#FEFEFE" transform="translate(0,0)"/>
<path d="M0 0 C4.85838373 3.10617976 9.78147127 3.14483629 15.3828125 2.5234375 C20.26628216 0.12777314 23.11855485 -3.25222907 26.3828125 -7.4765625 C29.86952084 -6.3671553 33.15765487 -5.21318584 36.3828125 -3.4765625 C35.04571285 3.50434149 29.87962452 8.61435299 24.19140625 12.515625 C17.74221001 16.10934558 11.64340427 16.56626548 4.3828125 15.5234375 C-1.39507441 13.28465966 -6.60399312 10.26606825 -11.9609375 7.16796875 C-16.8330417 4.49024481 -21.06626688 3.40164866 -26.6171875 4.5234375 C-31.71367265 6.68988763 -35.2697212 9.38835496 -37.6171875 14.5234375 C-41.67000462 13.29816721 -45.06079514 11.82463256 -48.6171875 9.5234375 C-44.25424515 2.23534062 -39.50045935 -3.980668 -31.8046875 -7.9140625 C-19.13053573 -10.15067752 -10.44932437 -7.05552671 0 0 Z " fill="#FAE689" transform="translate(118.6171875,79.4765625)"/>
<path d="M0 0 C2.12141477 1.2533932 4.19981213 2.55175289 6.265625 3.89453125 C10.86217963 6.8243172 14.56210417 7.46878412 20 7 C26.18821831 5.15439103 29.25448878 2.00773478 33 -3 C36.48670834 -1.8905928 39.77484237 -0.73662334 43 1 C41.96428082 7.10529199 36.89532808 11.15454898 32.625 15.3125 C26.18302914 19.45376698 19.33393 21.03508082 11.765625 19.56640625 C5.39350419 17.93278929 0.13953711 14.96758878 -5.43359375 11.5234375 C-10.46440246 8.5371127 -15.28405426 8.35795929 -21 9 C-25.44732447 11.22366224 -28.10584781 13.99271235 -31 18 C-35.12751449 17.39301257 -38.3321148 15.96189209 -42 14 C-39.62914757 8.07286893 -35.75486171 4.18499065 -31 0 C-30.47664063 -0.46148437 -29.95328125 -0.92296875 -29.4140625 -1.3984375 C-20.97799159 -7.43643749 -8.44391206 -4.56705505 0 0 Z " fill="#FD73B8" transform="translate(112,105)"/>
<path d="M0 0 C3.48670834 1.1094072 6.77484237 2.26337666 10 4 C8.1581575 10.54877335 3.05630292 16.05973567 -2.75 19.4375 C-9.55996865 22.71152339 -17.14712902 23.32488677 -24.50390625 21.31640625 C-29.54059007 19.1449558 -34.19665804 16.17828583 -38.8359375 13.26953125 C-43.39899053 10.59264996 -47.8434241 10.3720122 -53 11 C-57.8668039 13.43340195 -60.73462083 16.77421519 -64 21 C-68.12751449 20.39301257 -71.3321148 18.96189209 -75 17 C-73.49665796 11.65478385 -69.82879909 7.86491984 -66 4 C-61.25444349 1.62722174 -54.53972244 2.56139306 -49.25 2.5 C-48.54059265 2.49088593 -47.8311853 2.48177185 -47.10028076 2.47238159 C-37.33429601 2.40140423 -29.96878305 3.15186844 -21.6015625 8.4921875 C-18.12373281 10.50786657 -15.75961581 10.58251579 -11.89453125 9.71484375 C-6.55941834 7.70180115 -3.29336251 4.5600404 0 0 Z " fill="#51F1FE" transform="translate(145,132)"/>
<path d="M0 0 C2.72292587 1.69356947 5.40474451 3.38832281 7.99609375 5.27734375 C7.99609375 5.60734375 7.99609375 5.93734375 7.99609375 6.27734375 C-7.18390625 6.27734375 -22.36390625 6.27734375 -38.00390625 6.27734375 C-27.24660185 -6.27284472 -14.50791328 -8.31988265 0 0 Z " fill="#F9F58B" transform="translate(113.00390625,75.72265625)"/>
<path d="M0 0 C13.86 0 27.72 0 42 0 C39.92142903 4.15714194 39.3760565 4.69284105 35.5 6.6875 C34.7059375 7.10386719 33.911875 7.52023438 33.09375 7.94921875 C27.15422602 10.93006194 20.49340114 11.4827886 14.05126953 9.35693359 C3.23304303 4.84956454 3.23304303 4.84956454 0 0 Z " fill="#F7CE74" transform="translate(107,85)"/>
<path d="M0 0 C13.2 0 26.4 0 40 0 C35.58017171 5.52478536 32.01664393 8.14431172 25 9 C15.79192448 9.722202 7.25030879 6.63012806 0 1 C0 0.67 0 0.34 0 0 Z " fill="#FD6FDD" transform="translate(108,116)"/>
<path d="M0 0 C12.87 0 25.74 0 39 0 C32.67100077 6.32899923 29.30551852 8.13398537 20.625 8.4375 C14.58317064 8.29860737 10.19652497 7.00339697 5 4 C3.989375 3.443125 2.97875 2.88625 1.9375 2.3125 C1.298125 1.879375 0.65875 1.44625 0 1 C0 0.67 0 0.34 0 0 Z " fill="#51C6FE" transform="translate(109,146)"/>
<path d="M0 0 C2.13197075 -0.01182953 4.26098 -0.06094921 6.39233398 -0.11157227 C14.35845941 -0.20387109 19.68292277 0.26500002 25.96850586 5.42553711 C23.18795935 6.21224483 20.72889893 6.54819658 17.8425293 6.5390625 C17.04200134 6.53898697 16.24147339 6.53891144 15.41668701 6.53883362 C14.13522797 6.53109169 14.13522797 6.53109169 12.82788086 6.52319336 C11.94569885 6.52177841 11.06351685 6.52036346 10.15460205 6.51890564 C7.34253521 6.51331712 4.53054856 6.50076672 1.71850586 6.48803711 C-0.19034716 6.48302063 -2.09920142 6.47845798 -4.00805664 6.47436523 C-8.68256661 6.46335145 -13.35701679 6.44609469 -18.03149414 6.42553711 C-14.60748551 -1.47602126 -7.4305347 0.01950717 0 0 Z " fill="#33E7F9" transform="translate(94.031494140625,134.574462890625)"/>
<path d="M0 0 C1.890625 1.16796875 1.890625 1.16796875 3.890625 4.16796875 C-7.659375 4.16796875 -19.209375 4.16796875 -31.109375 4.16796875 C-22.00898784 -4.93241841 -11.78924377 -5.09435865 0 0 Z " fill="#FE9681" transform="translate(110.109375,103.83203125)"/>
<path d="M0 0 C1.0219043 0.0299707 1.0219043 0.0299707 2.06445312 0.06054688 C2.74958984 0.05345703 3.43472656 0.04636719 4.140625 0.0390625 C6.13085938 0.06445312 6.13085938 0.06445312 9.50195312 0.49804688 C10.16195312 1.48804688 10.82195312 2.47804687 11.50195312 3.49804688 C10.61507812 4.03429687 9.72820312 4.57054687 8.81445312 5.12304688 C5.31907097 7.43116146 3.05320654 10.1964248 0.50195312 13.49804688 C-3.62556137 12.89105945 -6.83016167 11.45993896 -10.49804688 9.49804688 C-8.29575563 3.39939421 -7.06485741 0.00691955 0 0 Z " fill="#4FF4FE" transform="translate(80.498046875,139.501953125)"/>
<path d="M0 0 C9.9 0 19.8 0 30 0 C24.88843875 5.11156125 21.81280115 6.28966705 14.6875 6.375 C8.68702876 6.30681283 5.04910159 5.16806374 0 2 C0 1.34 0 0.68 0 0 Z " fill="#F1A153" transform="translate(115,89)"/>
<path d="M0 0 C0 0.99 0 1.98 0 3 C-9.24 3 -18.48 3 -28 3 C-28 2.34 -28 1.68 -28 1 C-18.43186057 -4.29200798 -9.92556359 -4.49459483 0 0 Z " fill="#F0F162" transform="translate(109,74)"/>
<path d="M0 0 C0 0.33 0 0.66 0 1 C-14.19 1 -28.38 1 -43 1 C-42.34 0.01 -41.68 -0.98 -41 -2 C-38.29914856 -2.37549494 -35.81720155 -2.56091535 -33.10546875 -2.6171875 C-31.92891472 -2.65478683 -31.92891472 -2.65478683 -30.72859192 -2.69314575 C-29.0669 -2.742162 -27.40497321 -2.78369649 -25.74291992 -2.81835938 C-23.20696181 -2.87456863 -20.67356402 -2.96294902 -18.13867188 -3.0546875 C-16.52348903 -3.09830616 -14.9082538 -3.14003402 -13.29296875 -3.1796875 C-12.15990547 -3.22160721 -12.15990547 -3.22160721 -11.00395203 -3.26437378 C-6.47420427 -3.33140353 -3.59992528 -2.81802701 0 0 Z " fill="#FE8696" transform="translate(119,110)"/>
<path d="M0 0 C3.48670834 1.1094072 6.77484237 2.26337666 10 4 C9.62738979 6.16113923 9.1316356 7.78858526 7.96875 9.65625 C4.80202732 11.81766389 1.4587662 11.04734985 -2.1875 10.6875 C-2.93708984 10.62626953 -3.68667969 10.56503906 -4.45898438 10.50195312 C-6.30722745 10.34891389 -8.1538335 10.17633121 -10 10 C-9.23300781 9.40703125 -8.46601563 8.8140625 -7.67578125 8.203125 C-5.54991952 6.45278045 -3.88505376 4.88406759 -2.1875 2.75 C-1.465625 1.8425 -0.74375 0.935 0 0 Z " fill="#FE869D" transform="translate(145,102)"/>
<path d="M0 0 C13.2 0 26.4 0 40 0 C39.34 0.99 38.68 1.98 38 3 C35.33978031 3.30440801 32.91607671 3.42011287 30.25390625 3.3984375 C29.48698959 3.40130768 28.72007294 3.40417786 27.92991638 3.40713501 C26.30670433 3.40917786 24.68346779 3.4036325 23.06030273 3.39111328 C20.57544806 3.37508353 18.09222528 3.39094195 15.60742188 3.41015625 C14.03124641 3.40817343 12.45507195 3.40432894 10.87890625 3.3984375 C9.76316978 3.40754654 9.76316978 3.40754654 8.62489319 3.4168396 C4.19974909 3.3565462 3.28189021 3.28189021 0 0 Z " fill="#FC5BD6" transform="translate(108,116)"/>
<path d="M0 0 C3.48670834 1.1094072 6.77484237 2.26337666 10 4 C9.49396008 6.16874252 9.00016187 7.99967627 8 10 C2.39 10 -3.22 10 -9 10 C-7.35 8.35 -5.7 6.7 -4 5 C-2.64444707 3.35135455 -1.30368347 1.68996005 0 0 Z " fill="#FAF593" transform="translate(145,72)"/>
<path d="M0 0 C1.27230469 0.01804687 2.54460937 0.03609375 3.85546875 0.0546875 C5.31919922 0.08949219 5.31919922 0.08949219 6.8125 0.125 C6.39097656 0.60710937 5.96945313 1.08921875 5.53515625 1.5859375 C4.98730469 2.21757813 4.43945312 2.84921875 3.875 3.5 C3.32972656 4.12648438 2.78445312 4.75296875 2.22265625 5.3984375 C0.74291376 7.08132334 0.74291376 7.08132334 -0.1875 9.125 C-4.31501449 8.51801257 -7.5196148 7.08689209 -11.1875 5.125 C-9.24156355 -0.71280936 -5.42967275 -0.09962702 0 0 Z " fill="#FC60CF" transform="translate(81.1875,113.875)"/>
<path d="M0 0 C3.48670834 1.1094072 6.77484237 2.26337666 10 4 C9.34 5.65 8.68 7.3 8 9 C3.05 9 -1.9 9 -7 9 C-1.125 1.125 -1.125 1.125 0 0 Z " fill="#21EAFB" transform="translate(145,132)"/>
<path d="M0 0 C0.69029297 -0.01611328 1.38058594 -0.03222656 2.09179688 -0.04882812 C6.82905571 -0.05331842 10.00485553 0.90585328 14.0625 3.3125 C14.0625 3.6425 14.0625 3.9725 14.0625 4.3125 C4.8225 4.3125 -4.4175 4.3125 -13.9375 4.3125 C-12.9375 2.3125 -12.9375 2.3125 -10.87109375 1.20703125 C-7.21963419 0.0936035 -3.78017588 -0.01754956 0 0 Z " fill="#B2D2ED" transform="translate(95.9375,130.6875)"/>
<path d="M0 0 C1.17046875 0.03609375 2.3409375 0.0721875 3.546875 0.109375 C4.43890625 0.15578125 5.3309375 0.2021875 6.25 0.25 C3.28 4.705 3.28 4.705 0.25 9.25 C-3.80281712 8.02472971 -7.19360764 6.55119506 -10.75 4.25 C-7.43152371 0.07726249 -5.22729025 -0.20909161 0 0 Z " fill="#F2A95C" transform="translate(80.75,84.75)"/>
<path d="M0 0 C7.92 0 15.84 0 24 0 C23.67 0.99 23.34 1.98 23 3 C16.77983848 5.07338717 8.75623167 5.1418298 2.6875 2.5 C1.800625 2.005 0.91375 1.51 0 1 C0 0.67 0 0.34 0 0 Z " fill="#1B64FE" transform="translate(116,150)"/>
<path d="M0 0 C2.5 1.375 2.5 1.375 5 3 C5 3.66 5 4.32 5 5 C-6.55 5 -18.1 5 -30 5 C-29.67 4.01 -29.34 3.02 -29 2 C-19.43 2.33 -9.86 2.66 0 3 C0 2.01 0 1.02 0 0 Z " fill="#F4F373" transform="translate(109,74)"/>
<path d="M0 0 C12.21 0 24.42 0 37 0 C36.67 0.99 36.34 1.98 36 3 C25.77 2.67 15.54 2.34 5 2 C4.67 2.66 4.34 3.32 4 4 C2.68 2.68 1.36 1.36 0 0 Z " fill="#F5BC66" transform="translate(110,87)"/>
<path d="M0 0 C10.56 0 21.12 0 32 0 C32 0.66 32 1.32 32 2 C30.35 2.66 28.7 3.32 27 4 C27 3.34 27 2.68 27 2 C26.25314941 2.04600342 25.50629883 2.09200684 24.73681641 2.1394043 C21.36692915 2.33804973 17.99622329 2.51306307 14.625 2.6875 C13.449375 2.76033203 12.27375 2.83316406 11.0625 2.90820312 C9.38027344 2.99038086 9.38027344 2.99038086 7.6640625 3.07421875 C6.62717285 3.13182373 5.5902832 3.18942871 4.52197266 3.2487793 C3.68972168 3.16668213 2.8574707 3.08458496 2 3 C1.34 2.01 0.68 1.02 0 0 Z " fill="#3B9BFE" transform="translate(113,148)"/>
<path d="M0 0 C0.92941406 0.02835937 1.85882813 0.05671875 2.81640625 0.0859375 C4.20666016 0.10527344 4.20666016 0.10527344 5.625 0.125 C8.50409442 0.47620868 10.74723701 1.2668952 13.37890625 2.4609375 C13.37890625 3.1209375 13.37890625 3.7809375 13.37890625 4.4609375 C6.77890625 4.4609375 0.17890625 4.4609375 -6.62109375 4.4609375 C-2.62109375 0.4609375 -2.62109375 0.4609375 0 0 Z " fill="#ECEF4D" transform="translate(92.62109375,70.5390625)"/>
<path d="M0 0 C0 0.66 0 1.32 0 2 C-6.6 2 -13.2 2 -20 2 C-19 0 -19 0 -17 -1.125 C-11.21528665 -2.81220806 -5.4320491 -2.80363824 0 0 Z " fill="#FA9364" transform="translate(107,103)"/>
<path d="M0 0 C4.62 0 9.24 0 14 0 C13 2 12 4 11 6 C6.87248551 5.39301257 3.6678852 3.96189209 0 2 C0 1.34 0 0.68 0 0 Z " fill="#50B4FD" transform="translate(70,147)"/>
<path d="M0 0 C3.48670834 1.1094072 6.77484237 2.26337666 10 4 C9.67 4.99 9.34 5.98 9 7 C4.38 7 -0.24 7 -5 7 C-3.35 4.69 -1.7 2.38 0 0 Z " fill="#FC9D78" transform="translate(145,102)"/>
<path d="M0 0 C-0.33 0.66 -0.66 1.32 -1 2 C-2.32 2.33 -3.64 2.66 -5 3 C1.27 3.33 7.54 3.66 14 4 C14.33 3.34 14.66 2.68 15 2 C15.33 2.99 15.66 3.98 16 5 C7.09 5 -1.82 5 -11 5 C-6.58242877 0.58242877 -5.8403723 -0.15369401 0 0 Z " fill="#FC9C74" transform="translate(93,101)"/>
<path d="M0 0 C7.26 0 14.52 0 22 0 C18.9266731 3.0733269 15.92919261 2.94740419 11.6875 3.1875 C7.50909589 2.97503877 4.02041887 2.12853863 0 1 C0 0.67 0 0.34 0 0 Z " fill="#FD8DE1" transform="translate(118,122)"/>
<path d="M0 0 C1.17949219 0.01804687 2.35898438 0.03609375 3.57421875 0.0546875 C4.92966797 0.08949219 4.92966797 0.08949219 6.3125 0.125 C5.3225 1.61 5.3225 1.61 4.3125 3.125 C1.2734375 3.41796875 1.2734375 3.41796875 -2.3125 3.3125 C-3.50101562 3.28542969 -4.68953125 3.25835937 -5.9140625 3.23046875 C-6.82929687 3.19566406 -7.74453125 3.16085938 -8.6875 3.125 C-9.0175 3.785 -9.3475 4.445 -9.6875 5.125 C-9.6875 4.135 -9.6875 3.145 -9.6875 2.125 C-6.05554504 -0.29630331 -4.30400652 -0.08522785 0 0 Z " fill="#F6C970" transform="translate(80.6875,84.875)"/>
<path d="M0 0 C2.875 0.75 2.875 0.75 6 2 C6.66 3.32 7.32 4.64 8 6 C4.7 6 1.4 6 -2 6 C-1 2 -1 2 0 0 Z " fill="#F2F26A" transform="translate(145,72)"/>
<path d="M0 0 C4.15414253 1.22736029 6.43688534 2.327664 10 5 C5.71 5 1.42 5 -3 5 C-2.01 3.35 -1.02 1.7 0 0 Z " fill="#77DBF3" transform="translate(145,132)"/>
<path d="M0 0 C2.95064148 -0.2208564 5.68368231 -0.28060989 8.625 -0.1875 C9.42679688 -0.17396484 10.22859375 -0.16042969 11.0546875 -0.14648438 C13.03674378 -0.11109051 15.01845551 -0.05728234 17 0 C16.01171875 1.48828125 16.01171875 1.48828125 14 3 C11.18872957 3.21714241 8.6116655 3.28284276 5.8125 3.1875 C5.06291016 3.17396484 4.31332031 3.16042969 3.54101562 3.14648438 C1.69370233 3.11118539 -0.15324066 3.05737917 -2 3 C-1.34 2.01 -0.68 1.02 0 0 Z " fill="#F9E084" transform="translate(74,83)"/>
<path d="M0 0 C0.33 0.66 0.66 1.32 1 2 C4.3 2 7.6 2 11 2 C11 1.34 11 0.68 11 0 C11.66 0 12.32 0 13 0 C12.67 1.32 12.34 2.64 12 4 C7.71 4 3.42 4 -1 4 C-0.67 2.68 -0.34 1.36 0 0 Z " fill="#F6F47E" transform="translate(142,76)"/>
<path d="M0 0 C4.95 0 9.9 0 15 0 C12 3 12 3 8.86328125 3.07421875 C7.10564453 2.88279297 7.10564453 2.88279297 5.3125 2.6875 C4.13300781 2.56761719 2.95351562 2.44773438 1.73828125 2.32421875 C0.83464844 2.21722656 -0.06898437 2.11023438 -1 2 C-0.67 1.34 -0.34 0.68 0 0 Z " fill="#60D9FD" transform="translate(72,145)"/>
<path d="M0 0 C4.92127034 -0.16682272 8.50343896 -0.24828052 13 2 C13 2.33 13 2.66 13 3 C11.20841511 3.02696365 9.41671527 3.04637917 7.625 3.0625 C6.62726563 3.07410156 5.62953125 3.08570312 4.6015625 3.09765625 C2 3 2 3 0 2 C0 1.34 0 0.68 0 0 Z " fill="#E8ED38" transform="translate(93,71)"/>
<path d="M0 0 C3.63 0 7.26 0 11 0 C10.34 1.32 9.68 2.64 9 4 C4.80884715 3.41789544 3.62457917 2.71843438 0 0 Z " fill="#FD71DE" transform="translate(72,119)"/>
<path d="M0 0 C0.33 0.66 0.66 1.32 1 2 C3.31 2 5.62 2 8 2 C8 1.34 8 0.68 8 0 C9.32 0.33 10.64 0.66 12 1 C11.67 1.99 11.34 2.98 11 4 C6.38 4 1.76 4 -3 4 C-2.01 2.68 -1.02 1.36 0 0 Z " fill="#FD9B8A" transform="translate(143,105)"/>
<path d="M0 0 C2.97 0 5.94 0 9 0 C8.67 1.32 8.34 2.64 8 4 C3.91927658 3.44855089 3.08669204 3.08669204 0 0 Z " fill="#3885FE" transform="translate(73,149)"/>
<path d="M0 0 C3.96 0 7.92 0 12 0 C12 0.33 12 0.66 12 1 C9.03 1 6.06 1 3 1 C3 1.66 3 2.32 3 3 C2.01 2.67 1.02 2.34 0 2 C0 1.34 0 0.68 0 0 Z " fill="#F4B662" transform="translate(72,88)"/>
<path d="M0 0 C2.475 0.99 2.475 0.99 5 2 C5 2.66 5 3.32 5 4 C3.35 4 1.7 4 0 4 C-0.33 3.34 -0.66 2.68 -1 2 C-0.67 1.34 -0.34 0.68 0 0 Z " fill="#EEF05C" transform="translate(145,72)"/>
</svg>
