<?xml version="1.0" encoding="UTF-8"?>
<svg version="1.1" xmlns="http://www.w3.org/2000/svg" width="225" height="225">
<path d="M0 0 C74.25 0 148.5 0 225 0 C225 74.25 225 148.5 225 225 C150.75 225 76.5 225 0 225 C0 150.75 0 76.5 0 0 Z " fill="#4DA2FF" transform="translate(0,0)"/>
<path d="M0 0 C36.63 0 73.26 0 111 0 C111 74.25 111 148.5 111 225 C76.35 225 41.7 225 6 225 C6 224.67 6 224.34 6 224 C7.2375 223.88785156 7.2375 223.88785156 8.5 223.7734375 C26.77715273 221.69277949 43.18012242 214.15271775 57 202 C57.81210938 201.30648437 58.62421875 200.61296875 59.4609375 199.8984375 C74.73947645 185.87302793 83.69195618 165.5772885 85.22192383 145.01782227 C86.17344409 119.70167824 80.42128186 98.65256635 64 79 C63.55720703 78.46922852 63.11441406 77.93845703 62.65820312 77.39160156 C60.33235412 74.61069515 57.98764924 71.84678909 55.62890625 69.09375 C52.65533945 65.6133374 49.80167624 62.04325375 46.95703125 58.45703125 C43.35295349 53.93215119 39.6692291 49.47206897 36 45 C34.49971683 43.16689838 32.99971592 41.33356573 31.5 39.5 C30.7575 38.5925 30.015 37.685 29.25 36.75 C13.5 17.5 13.5 17.5 11.28515625 14.7890625 C9.67286088 12.82123533 8.0561618 10.85774189 6.43359375 8.8984375 C5.60988281 7.90070312 4.78617187 6.90296875 3.9375 5.875 C3.18339844 4.96492187 2.42929688 4.05484375 1.65234375 3.1171875 C0 1 0 1 0 0 Z " fill="#FEFEFF" transform="translate(114,0)"/>
<path d="M0 0 C36.63 0 73.26 0 111 0 C107.29606457 4.93858057 103.63976137 9.71811031 99.625 14.375 C95.64778664 19.03147989 91.76308774 23.74470201 87.95703125 28.54296875 C84.35295349 33.06784881 80.6692291 37.52793103 77 42 C75.49971683 43.83310162 73.99971592 45.66643427 72.5 47.5 C69.5 51.16666667 66.5 54.83333333 63.5 58.5 C62.38431641 59.86511719 62.38431641 59.86511719 61.24609375 61.2578125 C59.76308949 63.06836727 58.27618081 64.87573186 56.78515625 66.6796875 C41.57227581 84.96870893 41.57227581 84.96870893 30.75 106 C30.5034668 106.64042236 30.25693359 107.28084473 30.00292969 107.94067383 C22.05744513 129.70833432 24.25136758 154.66137597 33.80615234 175.49511719 C37.32849391 182.73121335 41.53652729 189.06100281 47 195 C47.73734375 195.82886719 48.4746875 196.65773437 49.234375 197.51171875 C58.37426183 207.26391826 69.59348573 214.11082849 82 219 C82.74507813 219.29519531 83.49015625 219.59039062 84.2578125 219.89453125 C90.34913503 222.11055002 96.60137071 223.07972337 103 224 C103 224.33 103 224.66 103 225 C69.01 225 35.02 225 0 225 C0 150.75 0 76.5 0 0 Z " fill="#FEFEFF" transform="translate(0,0)"/>
<path d="M0 0 C3.82591604 1.14836982 5.73665718 3.86059897 8.13671875 6.87890625 C8.65814453 7.51054688 9.17957031 8.1421875 9.71679688 8.79296875 C13.68106096 13.624865 17.52957139 18.55261527 21.35913086 23.49169922 C24.6882015 27.76826078 28.15376071 31.90549708 31.69921875 36.00390625 C35.71540429 40.64692474 39.66614232 45.3182328 43.453125 50.15234375 C44.99686921 52.10326148 46.56362221 54.01471175 48.1640625 55.91796875 C62.54947898 73.25201057 69.25780409 91.08516359 67.51171875 113.75390625 C66.90305016 117.93909262 65.9152396 121.76880889 64.51171875 125.75390625 C63.98384766 127.26017578 63.98384766 127.26017578 63.4453125 128.796875 C60.73384491 135.85742922 57.10871726 141.76588513 52.51171875 147.75390625 C50.21864401 145.46083151 49.76558639 143.51617464 48.91503906 140.44775391 C42.32832393 116.68658733 23.89297085 102.17806537 3.5546875 89.98046875 C-9.0610756 82.29189209 -20.47445553 72.48082395 -24.48828125 57.75390625 C-24.93999114 54.36816052 -25.01266854 51.04187609 -24.98828125 47.62890625 C-24.98328613 46.70819336 -24.97829102 45.78748047 -24.97314453 44.83886719 C-24.6737608 33.01630668 -20.81833803 23.05802842 -13.48828125 13.75390625 C-13.0720752 13.2125 -12.65586914 12.67109375 -12.22705078 12.11328125 C-10.81418793 10.28831274 -9.37526155 8.48739612 -7.92578125 6.69140625 C-7.46671387 6.10609131 -7.00764648 5.52077637 -6.53466797 4.91772461 C-4.52787977 2.50792502 -3.03823224 0.9205319 0 0 Z " fill="#FDFEFF" transform="translate(112.48828125,31.24609375)"/>
<path d="M0 0 C0.33 0 0.66 0 1 0 C1.27972656 1.08796875 1.55945313 2.1759375 1.84765625 3.296875 C8.03626348 26.39731555 21.41572258 41.41981894 41.8046875 53.234375 C42.43600586 53.59829346 43.06732422 53.96221191 43.71777344 54.3371582 C59.09615663 63.20945378 71.19963841 74.83859959 77 92 C77.97576602 95.82427554 78.10580497 99.37174732 78.0625 103.3125 C78.05347656 104.38113281 78.04445313 105.44976562 78.03515625 106.55078125 C78.02355469 107.35902344 78.01195312 108.16726562 78 109 C62.68696225 116.79500888 44.05760375 119.0841904 27.5 113.9375 C15.88927123 109.96128215 6.64403228 103.6139137 -2 95 C-2.63679688 94.38640625 -3.27359375 93.7728125 -3.9296875 93.140625 C-16.82515793 79.72933575 -20.63256042 61.20203774 -20.34375 43.26171875 C-19.63887084 27.10530112 -11.32287459 11.32287459 0 0 Z " fill="#FDFEFF" transform="translate(65,87)"/>
</svg>
